<svg width="80" height="80" viewBox="0 0 80 80" fill="none" xmlns="http://www.w3.org/2000/svg">
<rect width="80" height="80" rx="12" fill="#E2E8F0" fill-opacity="0.35"/>
<rect x="4" y="4" width="72" height="72" rx="12" fill="white"/>
<path d="M61.0006 30.6668C63.578 30.6668 65.6673 32.7562 65.6673 35.3335V44.6668C65.6673 47.2442 63.578 49.3335 61.0006 49.3335H58.5229C57.3747 58.5415 49.5197 65.6668 40.0007 65.6668V61.0002C47.7326 61.0002 54.0006 54.7321 54.0006 47.0002V33.0002C54.0006 25.2682 47.7326 19.0002 40.0007 19.0002C32.2687 19.0002 26.0007 25.2682 26.0007 33.0002V49.3335H19.0007C16.4233 49.3335 14.334 47.2442 14.334 44.6668V35.3335C14.334 32.7562 16.4233 30.6668 19.0007 30.6668H21.4784C22.6266 21.4588 30.4815 14.3335 40.0007 14.3335C49.5197 14.3335 57.3747 21.4588 58.5229 30.6668H61.0006ZM30.106 48.8316L32.5797 44.8738C34.7311 46.2213 37.2749 47.0002 40.0007 47.0002C42.7264 47.0002 45.2703 46.2213 47.4216 44.8738L49.8954 48.8316C47.0268 50.6283 43.635 51.6668 40.0007 51.6668C36.3663 51.6668 32.9746 50.6283 30.106 48.8316Z" fill="#1A73E8"/>
</svg>
