<svg width="29" height="28" viewBox="0 0 29 28" fill="none" xmlns="http://www.w3.org/2000/svg">
<path d="M26.3862 7.21749C25.5138 7.61401 24.5735 7.87459 23.5992 7.99921C24.5962 7.39876 25.3665 6.44711 25.7291 5.30286C24.7888 5.86932 23.7465 6.26584 22.6475 6.49243C21.7525 5.51812 20.495 4.95166 19.0675 4.95166C16.4052 4.95166 14.23 7.12686 14.23 9.81187C14.23 10.1971 14.2753 10.5709 14.3546 10.9221C10.3214 10.7182 6.73006 8.78092 4.33961 5.84666C3.92043 6.5604 3.68251 7.39876 3.68251 8.28244C3.68251 9.97048 4.5322 11.4659 5.84638 12.3156C5.04201 12.3156 4.29429 12.089 3.6372 11.7492V11.7831C3.6372 14.1396 5.31391 16.1109 7.53443 16.5527C6.82152 16.7478 6.07308 16.775 5.3479 16.632C5.65561 17.5978 6.25824 18.4429 7.07109 19.0485C7.88393 19.654 8.86611 19.9896 9.87957 20.0081C8.16165 21.3681 6.03218 22.1032 3.84112 22.0927C3.45593 22.0927 3.07074 22.07 2.68555 22.0247C4.83809 23.4069 7.39848 24.2112 10.1401 24.2112C19.0675 24.2112 23.9731 16.802 23.9731 10.3783C23.9731 10.1631 23.973 9.95915 23.9617 9.7439C24.9134 9.06415 25.7291 8.20313 26.3862 7.21749Z" fill="white"/>
</svg>
