<svg width="65" height="68" viewBox="0 0 65 68" fill="none" xmlns="http://www.w3.org/2000/svg">
<path d="M24.6552 44.1594V38.8025C24.6552 36.5724 22.8397 34.7568 20.6095 34.7568H4.04569C1.81552 34.7568 0 36.5724 0 38.8025V44.1594C0 46.3896 1.81552 48.2051 4.04569 48.2051H20.6095C22.8397 48.2051 24.6552 46.3896 24.6552 44.1594ZM15.6897 44.843C13.8405 44.843 12.3276 43.3301 12.3276 41.481C12.3276 39.6318 13.8405 38.1189 15.6897 38.1189C17.5388 38.1189 19.0517 39.6318 19.0517 41.481C19.0517 43.3301 17.5388 44.843 15.6897 44.843Z" fill="#1A73E8"/>
<path d="M6.72461 20.8378V32.5154H22.1117C24.7453 32.5154 26.897 34.9361 26.897 37.9059V45.0447C26.897 48.0146 24.7565 50.4353 22.1117 50.4353H6.72461V62.1128C6.72461 64.9482 9.02202 67.2456 11.8574 67.2456H59.8677C62.7031 67.2456 65.0005 64.9482 65.0005 62.1128V20.8378C65.0005 18.0025 62.7031 15.7051 59.8677 15.7051H11.8574C9.02202 15.7051 6.72461 18.0025 6.72461 20.8378Z" fill="#1A73E8"/>
<path d="M32.2205 11.5807L31.268 8.38672C30.5843 8.64448 30.1473 9.04793 29.9792 9.37293C29.9119 9.4962 29.8447 9.68672 29.8895 9.85482L30.2593 11.11C30.3826 11.5359 31.2568 11.816 32.2205 11.5919V11.5807Z" fill="#1A73E8"/>
<path d="M35.0215 13.1049L35.1336 13.4635H36.9267C36.6913 13.1049 35.8956 12.9032 35.0215 13.1049Z" fill="#1A73E8"/>
<path d="M39.4714 1.48351C36.58 -0.0854523 33.2403 -0.421659 30.08 0.530927C26.9309 1.48351 24.3309 3.60162 22.7619 6.493C21.5964 8.65593 21.1145 11.0654 21.3386 13.4637H29.6317C28.9033 13.0939 28.3429 12.5223 28.1076 11.749L27.7377 10.4939C27.5248 9.79903 27.6145 9.01455 27.9955 8.30851C28.4998 7.36713 29.4524 6.63869 30.6179 6.23524L29.9679 4.07231L32.1196 3.43351L32.7584 5.57403L35.9748 4.59903L36.6136 6.75075L33.3972 7.72575L34.3722 10.9533C36.5464 10.393 38.6084 11.2223 39.124 12.9258L39.2809 13.4525H45.8817C46.0274 11.8947 45.8817 10.3033 45.4222 8.79041C44.4696 5.64127 42.3515 3.04127 39.4602 1.47231L39.4714 1.48351Z" fill="#1A73E8"/>
<path d="M61.784 13.4638C62.1202 13.4638 62.434 13.5087 62.759 13.5647V11.3121C62.759 8.90264 61.0555 6.95264 58.9486 6.95264H46.834C47.1142 7.55781 47.3719 8.1854 47.5736 8.8354C48.0331 10.3483 48.2236 11.9061 48.1676 13.4638H61.7952H61.784Z" fill="#1A73E8"/>
<path d="M20.4071 6.94089H12.4726C10.3769 6.94089 8.96484 8.54348 8.96484 10.953V13.553C9.27864 13.4969 9.60364 13.4521 9.93984 13.4521H19.0735C18.995 11.2219 19.4433 9.00296 20.4071 6.92969V6.94089Z" fill="#1A73E8"/>
</svg>
