<svg width="66" height="68" viewBox="0 0 66 68" fill="none" xmlns="http://www.w3.org/2000/svg">
<path d="M39.4992 12.5486H18.8054C16.8395 12.5486 15.2441 10.9533 15.2441 8.98737V3.56126C15.2441 1.59535 16.8395 0 18.8054 0H39.4992C41.4651 0 43.0605 1.59535 43.0605 3.56126V8.98737C43.0605 10.9557 41.4651 12.5486 39.4992 12.5486Z" fill="#1A73E8"/>
<path d="M63.4282 38.4762C61.2144 36.2625 57.6051 36.2625 55.3913 38.4762L52.7637 41.1183L60.8054 49.1576L63.4282 46.5348C65.666 44.2994 65.666 40.7141 63.4282 38.4762Z" fill="#1A73E8"/>
<path d="M50.2184 43.6733L36.1899 57.6778C35.9012 57.9906 35.7087 58.3756 35.6365 58.7846L34.5777 65.0168C34.3371 66.3884 35.5402 67.5675 36.9118 67.3509L43.144 66.2921C43.5531 66.22 43.9381 66.0275 44.2268 65.7387L58.2553 51.7102L50.2184 43.6733Z" fill="#1A73E8"/>
<path d="M49.6651 6.28027H46.6693V8.98731C46.6693 12.9408 43.4522 16.158 39.4987 16.158H18.8049C14.849 16.158 11.6342 12.9408 11.6342 8.98731V6.28027H8.59033C3.85001 6.28027 0 10.1303 0 14.8706V58.7848C0 63.5251 3.85001 67.3751 8.59033 67.3751H31.3463C30.9806 66.4343 30.8434 65.414 31.0215 64.3962L32.0778 58.1808C32.2655 57.0788 32.7708 56.0609 33.5312 55.2307L48.847 39.9366L52.8294 35.9326C54.3092 34.4503 56.2077 33.572 58.2507 33.3194V14.8947C58.2555 10.1062 54.4295 6.28027 49.6651 6.28027ZM25.4053 41.9723H14.9645C13.7686 41.9723 12.7989 41.0026 12.7989 39.8066C12.7989 38.6107 13.7686 37.641 14.9645 37.641H25.4053C26.6012 37.641 27.5709 38.6107 27.5709 39.8066C27.5709 41.0026 26.6012 41.9723 25.4053 41.9723ZM38.1873 29.6811H14.9669C13.771 29.6811 12.8013 28.7114 12.8013 27.5155C12.8013 26.3196 13.771 25.3499 14.9669 25.3499H38.1873C39.3832 25.3499 40.3529 26.3196 40.3529 27.5155C40.3529 28.7114 39.3832 29.6811 38.1873 29.6811Z" fill="#1A73E8"/>
</svg>
