<svg width="88" height="67" viewBox="0 0 88 67" fill="none" xmlns="http://www.w3.org/2000/svg">
<path d="M40.1156 39.9092H19.2844C8.62812 39.9092 0 48.5373 0 59.1936C0 63.4904 3.47188 66.9623 7.76875 66.9623H51.6312C55.9281 66.9623 59.4 63.4904 59.4 59.1936C59.4 48.5373 50.7719 39.9092 40.1156 39.9092Z" fill="#1A73E8"/>
<path d="M29.7008 34.4094C39.2027 34.4094 46.9055 26.7066 46.9055 17.2047C46.9055 7.7028 39.2027 0 29.7008 0C20.1989 0 12.4961 7.7028 12.4961 17.2047C12.4961 26.7066 20.1989 34.4094 29.7008 34.4094Z" fill="#1A73E8"/>
<path d="M82.5691 19.5768H75.5223V12.5299C75.5223 9.52207 73.0988 7.09863 70.091 7.09863C67.0832 7.09863 64.6598 9.52207 64.6598 12.5299V19.5768H57.6129C54.6223 19.5768 52.1816 22.0002 52.1816 25.008C52.1816 27.9986 54.6051 30.4393 57.6129 30.4393H64.6598V37.4861C64.6598 40.4768 67.0832 42.9174 70.091 42.9174C73.0816 42.9174 75.5223 40.4939 75.5223 37.4861V30.4393H82.5691C85.577 30.4393 88.0004 28.0158 88.0004 25.008C88.0004 22.0174 85.577 19.5768 82.5691 19.5768Z" fill="#1A73E8"/>
</svg>
