<svg width="12" height="16" viewBox="0 0 12 16" fill="none" xmlns="http://www.w3.org/2000/svg">
<path fill-rule="evenodd" clip-rule="evenodd" d="M3.26735 3.53248C3.3 3.49974 3.3388 3.47377 3.38151 3.45605C3.42422 3.43832 3.47001 3.4292 3.51625 3.4292C3.5625 3.4292 3.60828 3.43832 3.651 3.45605C3.69371 3.47377 3.7325 3.49974 3.76516 3.53248L7.98391 7.75123C8.01665 7.78389 8.04262 7.82269 8.06035 7.8654C8.07807 7.90811 8.08719 7.9539 8.08719 8.00014C8.08719 8.04638 8.07807 8.09217 8.06035 8.13488C8.04262 8.17759 8.01665 8.21639 7.98391 8.24905L3.76516 12.4678C3.69915 12.5338 3.60961 12.5709 3.51625 12.5709C3.4229 12.5709 3.33336 12.5338 3.26735 12.4678C3.20133 12.4018 3.16425 12.3122 3.16425 12.2189C3.16425 12.1255 3.20133 12.036 3.26735 11.97L7.23789 8.00014L3.26735 4.0303C3.23461 3.99764 3.20863 3.95884 3.19091 3.91613C3.17319 3.87342 3.16406 3.82763 3.16406 3.78139C3.16406 3.73515 3.17319 3.68936 3.19091 3.64665C3.20863 3.60394 3.23461 3.56514 3.26735 3.53248Z" fill="#3C4852" stroke="#3C4852" stroke-width="1.05469"/>
</svg>
