<svg width="13" height="16" viewBox="0 0 13 16" fill="none" xmlns="http://www.w3.org/2000/svg">
<path fill-rule="evenodd" clip-rule="evenodd" d="M4.08766 3.53248C4.12032 3.49974 4.15911 3.47377 4.20182 3.45605C4.24453 3.43832 4.29032 3.4292 4.33657 3.4292C4.38281 3.4292 4.4286 3.43832 4.47131 3.45605C4.51402 3.47377 4.55282 3.49974 4.58547 3.53248L8.80422 7.75123C8.83696 7.78389 8.86294 7.82269 8.88066 7.8654C8.89838 7.90811 8.90751 7.9539 8.90751 8.00014C8.90751 8.04638 8.89838 8.09217 8.88066 8.13488C8.86294 8.17759 8.83696 8.21639 8.80422 8.24905L4.58547 12.4678C4.51946 12.5338 4.42992 12.5709 4.33657 12.5709C4.24321 12.5709 4.15367 12.5338 4.08766 12.4678C4.02165 12.4018 3.98456 12.3122 3.98456 12.2189C3.98456 12.1255 4.02165 12.036 4.08766 11.97L8.05821 8.00014L4.08766 4.0303C4.05492 3.99764 4.02894 3.95884 4.01122 3.91613C3.9935 3.87342 3.98438 3.82763 3.98438 3.78139C3.98438 3.73515 3.9935 3.68936 4.01122 3.64665C4.02894 3.60394 4.05492 3.56514 4.08766 3.53248Z" fill="#3C4852" stroke="#3C4852" stroke-width="1.05469"/>
</svg>
