<svg width="28" height="28" viewBox="0 0 28 28" fill="none" xmlns="http://www.w3.org/2000/svg">
<path d="M5.66427 3.81885H21.5251C22.126 3.81885 22.7024 4.05757 23.1273 4.48249C23.5522 4.90742 23.7909 5.48374 23.7909 6.08468V21.9455C23.7909 22.5465 23.5522 23.1228 23.1273 23.5477C22.7024 23.9726 22.126 24.2113 21.5251 24.2113H5.66427C5.06333 24.2113 4.48701 23.9726 4.06208 23.5477C3.63716 23.1228 3.39844 22.5465 3.39844 21.9455V6.08468C3.39844 5.48374 3.63716 4.90742 4.06208 4.48249C4.48701 4.05757 5.06333 3.81885 5.66427 3.81885ZM20.3922 6.08468H17.5599C16.5083 6.08468 15.4997 6.50244 14.7561 7.24606C14.0125 7.98968 13.5947 8.99825 13.5947 10.0499V12.8822H11.3289V16.2809H13.5947V24.2113H16.9934V16.2809H20.3922V12.8822H16.9934V10.6163C16.9934 10.3159 17.1128 10.0277 17.3253 9.81526C17.5377 9.60279 17.8259 9.48343 18.1264 9.48343H20.3922V6.08468Z" fill="white"/>
</svg>
