<svg width="28" height="28" viewBox="0 0 28 28" fill="none" xmlns="http://www.w3.org/2000/svg">
<path d="M21.7146 3.81885C22.3155 3.81885 22.8918 4.05757 23.3167 4.48249C23.7417 4.90742 23.9804 5.48374 23.9804 6.08468V21.9455C23.9804 22.5465 23.7417 23.1228 23.3167 23.5477C22.8918 23.9726 22.3155 24.2113 21.7146 24.2113H5.85372C5.25279 24.2113 4.67646 23.9726 4.25154 23.5477C3.82661 23.1228 3.58789 22.5465 3.58789 21.9455V6.08468C3.58789 5.48374 3.82661 4.90742 4.25154 4.48249C4.67646 4.05757 5.25279 3.81885 5.85372 3.81885H21.7146ZM21.1481 21.3791V15.3746C21.1481 14.3951 20.759 13.4557 20.0664 12.763C19.3737 12.0704 18.4343 11.6813 17.4548 11.6813C16.4918 11.6813 15.3702 12.2704 14.8264 13.1541V11.8965H11.6656V21.3791H14.8264V15.7938C14.8264 14.9214 15.5288 14.2077 16.4012 14.2077C16.8218 14.2077 17.2253 14.3748 17.5227 14.6722C17.8202 14.9697 17.9873 15.3731 17.9873 15.7938V21.3791H21.1481ZM7.98361 10.1179C8.48839 10.1179 8.97251 9.91734 9.32944 9.5604C9.68638 9.20346 9.88691 8.71935 9.88691 8.21456C9.88691 7.16095 9.03722 6.29994 7.98361 6.29994C7.47582 6.29994 6.98882 6.50165 6.62976 6.86072C6.2707 7.21978 6.06898 7.70677 6.06898 8.21456C6.06898 9.26818 6.93 10.1179 7.98361 10.1179ZM9.55836 21.3791V11.8965H6.42018V21.3791H9.55836Z" fill="white"/>
</svg>
