<svg width="28" height="28" viewBox="0 0 28 28" fill="none" xmlns="http://www.w3.org/2000/svg">
<path d="M8.9674 2.68555H18.4839C22.1092 2.68555 25.0548 5.63113 25.0548 9.25646V18.773C25.0548 20.5157 24.3625 22.187 23.1302 23.4193C21.898 24.6516 20.2266 25.3439 18.4839 25.3439H8.9674C5.34207 25.3439 2.39648 22.3983 2.39648 18.773V9.25646C2.39648 7.51375 3.08878 5.84241 4.32106 4.61012C5.55335 3.37784 7.22469 2.68555 8.9674 2.68555ZM8.74082 4.95138C7.65913 4.95138 6.62175 5.38108 5.85688 6.14595C5.09202 6.91081 4.66232 7.94819 4.66232 9.02988V18.9995C4.66232 21.2541 6.48631 23.078 8.74082 23.078H18.7105C19.7922 23.078 20.8296 22.6483 21.5944 21.8835C22.3593 21.1186 22.789 20.0812 22.789 18.9995V9.02988C22.789 6.77538 20.965 4.95138 18.7105 4.95138H8.74082ZM19.6735 6.65076C20.049 6.65076 20.4093 6.79996 20.6748 7.06553C20.9404 7.33111 21.0896 7.69132 21.0896 8.0669C21.0896 8.44249 20.9404 8.80269 20.6748 9.06827C20.4093 9.33385 20.049 9.48305 19.6735 9.48305C19.2979 9.48305 18.9377 9.33385 18.6721 9.06827C18.4065 8.80269 18.2573 8.44249 18.2573 8.0669C18.2573 7.69132 18.4065 7.33111 18.6721 7.06553C18.9377 6.79996 19.2979 6.65076 19.6735 6.65076ZM13.7257 8.35013C15.228 8.35013 16.6688 8.94693 17.7311 10.0092C18.7934 11.0716 19.3902 12.5124 19.3902 14.0147C19.3902 15.5171 18.7934 16.9579 17.7311 18.0202C16.6688 19.0825 15.228 19.6793 13.7257 19.6793C12.2233 19.6793 10.7825 19.0825 9.72019 18.0202C8.65787 16.9579 8.06107 15.5171 8.06107 14.0147C8.06107 12.5124 8.65787 11.0716 9.72019 10.0092C10.7825 8.94693 12.2233 8.35013 13.7257 8.35013ZM13.7257 10.616C12.8242 10.616 11.9598 10.974 11.3224 11.6114C10.685 12.2488 10.3269 13.1133 10.3269 14.0147C10.3269 14.9161 10.685 15.7806 11.3224 16.418C11.9598 17.0554 12.8242 17.4135 13.7257 17.4135C14.6271 17.4135 15.4915 17.0554 16.1289 16.418C16.7663 15.7806 17.1244 14.9161 17.1244 14.0147C17.1244 13.1133 16.7663 12.2488 16.1289 11.6114C15.4915 10.974 14.6271 10.616 13.7257 10.616Z" fill="white"/>
</svg>
