<svg width="28" height="28" viewBox="0 0 28 28" fill="none" xmlns="http://www.w3.org/2000/svg">
<path d="M11.6395 17.4136L17.5193 14.0149L11.6395 10.6161V17.4136ZM24.736 8.5429C24.8833 9.07537 24.9853 9.78911 25.0532 10.6954C25.1325 11.6018 25.1665 12.3835 25.1665 13.0632L25.2345 14.0149C25.2345 16.496 25.0532 18.32 24.736 19.4869C24.4528 20.5065 23.7957 21.1636 22.7761 21.4468C22.2436 21.5941 21.2693 21.6961 19.7738 21.764C18.3011 21.8433 16.9529 21.8773 15.7067 21.8773L13.9053 21.9453C9.15842 21.9453 6.20151 21.764 5.0346 21.4468C4.01498 21.1636 3.35788 20.5065 3.07466 19.4869C2.92738 18.9544 2.82541 18.2407 2.75744 17.3343C2.67813 16.428 2.64415 15.6463 2.64415 14.9665L2.57617 14.0149C2.57617 11.5338 2.75744 9.70981 3.07466 8.5429C3.35788 7.52328 4.01498 6.86619 5.0346 6.58296C5.56707 6.43568 6.54138 6.33371 8.03683 6.26574C9.50962 6.18643 10.8578 6.15245 12.104 6.15245L13.9053 6.08447C18.6523 6.08447 21.6092 6.26574 22.7761 6.58296C23.7957 6.86619 24.4528 7.52328 24.736 8.5429Z" fill="white"/>
</svg>
