<svg width="60" height="61" viewBox="0 0 60 61" fill="none" xmlns="http://www.w3.org/2000/svg">
<path d="M4.97852 29.3303C4.9787 22.749 7.57166 16.4328 12.1957 11.7497C16.8198 7.06656 23.1027 4.39372 29.6835 4.31008L29.6585 4.28507L48.2299 4.13721C48.2299 4.13721 54.8032 4.26061 54.8032 11.4162C54.8032 15.9923 54.8684 22.7363 54.9157 27.0048C54.9864 27.7709 55.0226 28.5461 55.0245 29.3303C55.0245 32.6164 54.3772 35.8703 53.1197 38.9062C51.8622 41.9421 50.019 44.7006 47.6954 47.0242C45.3718 49.3478 42.6133 51.191 39.5774 52.4485C36.5414 53.7061 33.2875 54.3533 30.0015 54.3533C26.7154 54.3533 23.4615 53.7061 20.4256 52.4485C17.3897 51.191 14.6312 49.3478 12.3076 47.0242C9.98398 44.7006 8.1408 41.9421 6.88328 38.9062C5.62575 35.8703 4.97852 32.6164 4.97852 29.3303Z" fill="#1D65FF"/>
<path d="M36.5875 36.3403L30.6958 33.8152C30.3882 33.6829 30.0524 33.6296 29.7189 33.6602C29.3854 33.6909 29.0649 33.8046 28.7866 33.9908L25.6364 36.0919C23.7112 35.1555 22.153 33.6042 21.2082 31.6832L23.3005 28.4857C23.4825 28.208 23.5929 27.8897 23.6219 27.5591C23.6509 27.2284 23.5977 26.8957 23.4669 26.5906L20.9396 20.6925C20.7675 20.2923 20.4705 19.9586 20.0929 19.7413C19.7153 19.5241 19.2775 19.4349 18.8451 19.4873C17.1455 19.7057 15.5836 20.5355 14.4511 21.8215C13.3187 23.1075 12.6931 24.7618 12.6914 26.4754C12.6969 31.2777 14.607 35.8818 18.0028 39.2775C21.3987 42.6732 26.0028 44.5832 30.8051 44.5885C32.5186 44.5868 34.173 43.9613 35.459 42.8288C36.745 41.6963 37.5747 40.1344 37.7932 38.4348C37.8454 38.0023 37.7562 37.5645 37.5388 37.187C37.3215 36.8094 36.9877 36.5124 36.5875 36.3403Z" fill="white"/>
<path d="M43.6731 29.9344C43.5731 29.9344 43.4987 29.9344 43.4308 29.9344C41.7456 29.904 39.4576 29.8888 36.6237 29.8888C31.828 29.8888 26.9859 29.9339 26.9473 29.9344V17.9277C27.0793 17.1884 27.3845 16.4907 27.8378 15.8919C28.2824 15.3001 28.8596 14.8207 29.523 14.4925C30.4667 14.0487 31.5007 13.831 32.5432 13.8565H43.4329C43.4498 13.8565 43.4936 13.8565 43.5638 13.8565C44.3922 13.8565 48.5297 14.1214 48.6227 19.3531C48.7238 25.129 48.6227 26.5647 48.6227 26.5783C48.6514 26.931 48.6094 27.2859 48.4987 27.622C48.3881 27.9581 48.2111 28.2684 47.9785 28.5351C47.1718 29.4597 45.7242 29.9344 43.6731 29.9344ZM31.2364 23.4483C31.0121 23.4486 30.797 23.5375 30.6384 23.6962C30.4798 23.8549 30.3906 24.0701 30.3905 24.2945C30.3906 24.5188 30.4798 24.7341 30.6384 24.8928C30.797 25.0514 31.0121 25.1404 31.2364 25.1407H39.7391C39.9635 25.1404 40.1783 25.0514 40.3369 24.8928C40.4955 24.7341 40.5847 24.5188 40.5848 24.2945C40.5847 24.0701 40.4955 23.8549 40.3369 23.6962C40.1783 23.5375 39.9635 23.4486 39.7391 23.4483H31.2364ZM31.2364 19.3584C31.0121 19.3587 30.797 19.4482 30.6384 19.6069C30.4798 19.7656 30.3906 19.9803 30.3905 20.2046C30.3906 20.429 30.4798 20.6443 30.6384 20.8029C30.797 20.9616 31.0121 21.0511 31.2364 21.0514H44.3728C44.5973 21.0512 44.8124 20.9616 44.9711 20.8029C45.1298 20.6442 45.2189 20.4291 45.219 20.2046C45.2189 19.9802 45.1298 19.7651 44.9711 19.6064C44.8124 19.4477 44.5973 19.3586 44.3728 19.3584H31.2364Z" fill="white"/>
</svg>
