<svg width="12" height="16" viewBox="0 0 12 16" fill="none" xmlns="http://www.w3.org/2000/svg">
<path fill-rule="evenodd" clip-rule="evenodd" d="M3.64625 3.53248C3.67891 3.49974 3.71771 3.47377 3.76042 3.45605C3.80313 3.43832 3.84892 3.4292 3.89516 3.4292C3.9414 3.4292 3.98719 3.43832 4.0299 3.45605C4.07261 3.47377 4.11141 3.49974 4.14407 3.53248L8.36282 7.75123C8.39556 7.78389 8.42153 7.82269 8.43925 7.8654C8.45698 7.90811 8.4661 7.9539 8.4661 8.00014C8.4661 8.04638 8.45698 8.09217 8.43925 8.13488C8.42153 8.17759 8.39556 8.21639 8.36282 8.24905L4.14407 12.4678C4.07805 12.5338 3.98852 12.5709 3.89516 12.5709C3.8018 12.5709 3.71227 12.5338 3.64625 12.4678C3.58024 12.4018 3.54315 12.3122 3.54315 12.2189C3.54315 12.1255 3.58024 12.036 3.64625 11.97L7.6168 8.00014L3.64625 4.0303C3.61351 3.99764 3.58754 3.95884 3.56981 3.91613C3.55209 3.87342 3.54297 3.82763 3.54297 3.78139C3.54297 3.73515 3.55209 3.68936 3.56981 3.64665C3.58754 3.60394 3.61351 3.56514 3.64625 3.53248Z" fill="#3C4852" stroke="#3C4852" stroke-width="1.05469"/>
</svg>
