<svg width="6" height="11" viewBox="0 0 6 11" fill="none" xmlns="http://www.w3.org/2000/svg">
<path fill-rule="evenodd" clip-rule="evenodd" d="M0.646253 1.10328C0.67891 1.07054 0.717706 1.04457 0.760417 1.02685C0.803129 1.00912 0.848917 1 0.89516 1C0.941402 1 0.987191 1.00912 1.0299 1.02685C1.07261 1.04457 1.11141 1.07054 1.14407 1.10328L5.36282 5.32203C5.39556 5.35469 5.42153 5.39349 5.43925 5.4362C5.45698 5.47891 5.4661 5.5247 5.4661 5.57094C5.4661 5.61718 5.45698 5.66297 5.43925 5.70568C5.42153 5.74839 5.39556 5.78719 5.36282 5.81985L1.14407 10.0386C1.07805 10.1046 0.988518 10.1417 0.89516 10.1417C0.801802 10.1417 0.712267 10.1046 0.646253 10.0386C0.580239 9.97258 0.543153 9.88305 0.543153 9.78969C0.543153 9.69633 0.580239 9.6068 0.646253 9.54078L4.6168 5.57094L0.646253 1.6011C0.613513 1.56844 0.587538 1.52964 0.569815 1.48693C0.552091 1.44422 0.542969 1.39843 0.542969 1.35219C0.542969 1.30595 0.552091 1.26016 0.569815 1.21745C0.587538 1.17474 0.613513 1.13594 0.646253 1.10328Z" fill="#3C4852" stroke="#3C4852" stroke-width="1.05469"/>
</svg>
